:FULLY-SPECIFIED
:FORCE-ALL-JOINTS-BE-3DOF
:DEGREES
577
root 7.0038 16.3861 -3.57023 -166.702 75.9915 -173.455
lfemur -17.6205 -1.04153 -19.0162
ltibia 46.0798 -0 0
lfoot -32.8455 9.05374 0.0124899
ltoes 4.79358 -0 0
rfemur -50.8775 -12.2876 13.274
rtibia 47.97 -0 0
rfoot 12.0003 7.1313 0.0310029
rtoes -29.4828 0 0
lowerback 6.57987 -0.752398 -2.36065
upperback 2.43402 -0.989178 3.40437
thorax -1.07054 -0.474463 4.9264
lowerneck -5.24617 -13.5222 -4.03667
upperneck 10.5367 -18.3483 5.33275
head 4.89086 -8.85851 1.08374
lclavicle 0 0 0
lhumerus -39.0281 -18.0599 92.8466
lradius 54.709 -0 0
lwrist 22.3986 0 0
lhand -20.9388 -4.00518 0.00658118
lfingers 0 0 0
lthumb 5.4334 25.9045 0.00629532
rclavicle 0 0 0
rhumerus 27.659 16.0279 -73.8917
rradius 134.037 -0 0
rwrist -44.9476 0 0
rhand -25.8385 -20.9266 0.00427715
rfingers 0 0 0
rthumb 0.701777 -50.9048 0.00414191
578
root 6.95383 16.3967 -3.56195 -165.663 77.157 -172.326
lfemur -17.4378 -0.934594 -19.0817
ltibia 45.5786 -0 0
lfoot -32.683 9.64618 0.0133348
ltoes 5.42181 -0 0
rfemur -51.0459 -12.7044 13.5567
rtibia 50.3978 -0 0
rfoot 12.6216 7.51579 0.0331001
rtoes -27.6751 0 0
lowerback 6.34176 -0.755253 -2.53707
upperback 2.37041 -1.01184 3.26398
thorax -1.00089 -0.490158 4.87732
lowerneck -5.33479 -13.4772 -3.97314
upperneck 10.7884 -18.3078 5.34011
head 4.97663 -8.82635 1.06484
lclavicle 0 0 0
lhumerus -37.6308 -19.0474 91.8105
lradius 54.4596 -0 0
lwrist 22.87 0 0
lhand -20.8027 -3.63256 0.00702631
lfingers 0 0 0
lthumb 5.56479 26.2737 0.00672111
rclavicle 0 0 0
rhumerus 27.5565 15.9927 -73.7956
rradius 134.049 -0 0
rwrist -44.97 0 0
rhand -25.6949 -20.6971 0.00456644
rfingers 0 0 0
rthumb 0.840446 -50.6747 0.00442204
579
root 6.90906 16.4022 -3.55316 -164.417 78.3102 -170.991
lfemur -17.2562 -0.828094 -19.1464
ltibia 45.0803 -0 0
lfoot -32.5216 10.2351 0.01251
ltoes 6.04628 -0 0
rfemur -51.2157 -13.1178 13.8394
rtibia 52.8111 -0 0
rfoot 13.2392 7.89798 0.0310527
rtoes -25.8782 0 0
lowerback 6.10507 -0.758818 -2.71241
upperback 2.30724 -1.03451 3.12446
thorax -0.931637 -0.5057 4.82852
lowerneck -5.42282 -13.4325 -3.91007
upperneck 11.0386 -18.2676 5.34761
head 5.06187 -8.79436 1.0461
lclavicle 0 0 0
lhumerus -36.2149 -20.0047 90.7493
lradius 54.2118 -0 0
lwrist 23.3386 0 0
lhand -20.6674 -3.26217 0.00659175
lfingers 0 0 0
lthumb 5.69538 26.6406 0.00630543
rclavicle 0 0 0
rhumerus 27.4546 15.9578 -73.7001
rradius 134.061 -0 0
rwrist -44.9922 0 0
rhand -25.5522 -20.469 0.00428402
rfingers 0 0 0
rthumb 0.978285 -50.446 0.00414856
580
root 6.87041 16.4037 -3.54451 -162.992 79.3873 -169.482
lfemur -17.0858 -0.727824 -19.2069
ltibia 44.612 -0 0
lfoot -32.3698 10.7885 0.0102223
ltoes 6.63313 -0 0
rfemur -51.3775 -13.5056 14.1066
rtibia 55.079 -0 0
rfoot 13.8196 8.2571 0.0253739
rtoes -24.1896 0 0
lowerback 5.88266 -0.762829 -2.87718
upperback 2.24792 -1.05596 2.99337
thorax -0.866544 -0.520251 4.78264
lowerneck -5.50549 -13.3904 -3.85088
upperneck 11.2736 -18.2299 5.35482
head 5.14197 -8.76427 1.02854
lclavicle 0 0 0
lhumerus -34.8593 -20.8813 89.7232
lradius 53.9789 -0 0
lwrist 23.779 0 0
lhand -20.5403 -2.9141 0.00538642
lfingers 0 0 0
lthumb 5.81811 26.9855 0.00515246
rclavicle 0 0 0
rhumerus 27.3588 15.9252 -73.6102
rradius 134.072 -0 0
rwrist -45.0131 0 0
rhand -25.418 -20.2546 0.00350069
rfingers 0 0 0
rthumb 1.10782 -50.231 0.00339
581
root 6.83878 16.4027 -3.53665 -161.473 80.3264 -167.89
lfemur -16.9361 -0.639618 -19.2598
ltibia 44.2008 -0 0
lfoot -32.2366 11.2745 0.00700479
ltoes 7.1485 -0 0
rfemur -51.5213 -13.8455 14.3426
rtibia 57.0707 -0 0
rfoot 14.3293 8.57243 0.017387
rtoes -22.7066 0 0
lowerback 5.68735 -0.766878 -3.02187
upperback 2.19587 -1.07491 2.87826
thorax -0.80937 -0.532987 4.74233
lowerneck -5.57803 -13.3533 -3.79896
upperneck 11.48 -18.1968 5.36129
head 5.21229 -8.73783 1.01315
lclavicle 0 0 0
lhumerus -33.6484 -21.6321 88.799
lradius 53.7744 -0 0
lwrist 24.1658 0 0
lhand -20.4287 -2.60842 0.00369109
lfingers 0 0 0
lthumb 5.92588 27.2883 0.00353077
rclavicle 0 0 0
rhumerus 27.2747 15.8967 -73.5312
rradius 134.082 -0 0
rwrist -45.0314 0 0
rhand -25.3003 -20.0664 0.0023989
rfingers 0 0 0
rthumb 1.22157 -50.0422 0.00232305
582
root 6.81507 16.4004 -3.53024 -160.033 81.0676 -166.391
lfemur -16.8171 -0.569341 -19.3017
ltibia 43.8736 -0 0
lfoot -32.1307 11.6612 0.00363773
ltoes 7.55855 -0 0
rfemur -51.6369 -14.1155 14.5312
rtibia 58.6554 -0 0
rfoot 14.7347 8.82325 0.00902931
rtoes -21.5267 0 0
lowerback 5.53196 -0.770452 -3.13697
upperback 2.15448 -1.09006 2.78669
thorax -0.763874 -0.543092 4.71026
lowerneck -5.63572 -13.3238 -3.75769
upperneck 11.6441 -18.1705 5.36653
head 5.26823 -8.71678 1.00093
lclavicle 0 0 0
lhumerus -32.6713 -22.2162 88.048
lradius 53.6116 -0 0
lwrist 24.4735 0 0
lhand -20.3399 -2.36522 0.0019169
lfingers 0 0 0
lthumb 6.01161 27.5293 0.00183364
rclavicle 0 0 0
rhumerus 27.2077 15.8741 -73.4684
rradius 134.09 -0 0
rwrist -45.046 0 0
rhand -25.2065 -19.9166 0.00124584
rfingers 0 0 0
rthumb 1.31207 -49.892 0.00120644
583
root 6.80018 16.398 -3.52592 -158.94 81.5535 -165.26
lfemur -16.7386 -0.522872 -19.3293
ltibia 43.6574 -0 0
lfoot -32.0607 11.9166 0.00102144
ltoes 7.8294 -0 0
rfemur -51.7138 -14.2937 14.6563
rtibia 59.7021 -0 0
rfoot 15.0025 8.98889 0.00253531
rtoes -20.7473 0 0
lowerback 5.42932 -0.772984 -3.213
upperback 2.12715 -1.10011 2.72621
thorax -0.733819 -0.549753 4.68906
lowerneck -5.67381 -13.3043 -3.73044
upperneck 11.7525 -18.1531 5.37003
head 5.30518 -8.70287 0.992869
lclavicle 0 0 0
lhumerus -32.019 -22.5955 87.5444
lradius 53.5041 -0 0
lwrist 24.6767 0 0
lhand -20.2813 -2.20457 0.000538257
lfingers 0 0 0
lthumb 6.06824 27.6884 0.000514878
rclavicle 0 0 0
rhumerus 27.1635 15.8592 -73.4269
rradius 134.095 -0 0
rwrist -45.0556 0 0
rhand -25.1447 -19.8176 0.000349827
rfingers 0 0 0
rthumb 1.37185 -49.7928 0.000338766
584
root 6.60508 16.4188 -3.49289 -158.514 81.7281 -164.82
lfemur -16.7102 -0.506082 -19.3393
ltibia 43.5794 0 0
lfoot -32.0354 12.0088 0
ltoes 7.92721 0 0
rfemur -51.7417 -14.358 14.7015
rtibia 60.0801 0 0
rfoot 15.0992 9.0487 0
rtoes -20.4659 0 0
lowerback 5.39226 -0.773932 -3.24045
upperback 2.11729 -1.10374 2.70437
thorax -0.722965 -0.552155 4.68141
lowerneck -5.68756 -13.2972 -3.72061
upperneck 11.7917 -18.1468 5.3713
head 5.31852 -8.69784 0.989961
lclavicle -2.5345e-15 -9.54166e-15 0
lhumerus -31.7822 -22.7311 87.3611
lradius 53.4653 0 0
lwrist 24.7501 0 0
lhand -20.2601 -2.14656 0
lfingers 7.12502 0 0
lthumb 6.08869 27.7459 0
rclavicle -2.5345e-15 -9.54166e-15 0
rhumerus 27.1475 15.8538 -73.4119
rradius 134.097 0 0
rwrist -45.0591 0 0
rhand -25.1223 -19.7819 0
rfingers 7.12502 0 0
rthumb 1.39344 -49.757 0
585
root 6.55414 16.4226 -3.48294 -156.497 82.4986 -162.768
lfemur -16.7738 0.452257 -19.3188
ltibia 43.6617 -0 0
lfoot -32.0041 12.0738 0.000273735
ltoes 7.43378 -0 0
rfemur -51.282 -14.1243 14.856
rtibia 59.4868 -0 0
rfoot 14.5221 9.23883 -0.0148105
rtoes -20.8023 0 0
lowerback 5.2948 -0.811679 -3.4291
upperback 2.09238 -1.164 2.6428
thorax -0.682852 -0.584477 4.7247
lowerneck -5.68293 -13.263 -3.71593
upperneck 11.8803 -18.12 5.46116
head 5.3524 -8.67625 1.01468
lclavicle 0 0 0
lhumerus -31.2784 -23.0988 87.2761
lradius 53.4746 -0 0
lwrist 24.7553 0 0
lhand -20.1504 -2.16333 -0.000247731
lfingers 0 0 0
lthumb 6.19458 27.7256 -0.000288996
rclavicle 0 0 0
rhumerus 26.9514 15.8264 -73.4103
rradius 134.017 -0 0
rwrist -45.1656 0 0
rhand -25.274 -19.8403 0.00119419
rfingers 0 0 0
rthumb 1.2469 -49.8156 0.00115661
